<svg xmlns="http://www.w3.org/2000/svg" viewBox="0 0 700 450" width="100%" height="100%" fill="none">
  <defs>
    <linearGradient id="mktg-bg" x1="0%" y1="0%" x2="100%" y2="100%">
      <stop offset="0%" stop-color="#08181A" />
      <stop offset="100%" stop-color="#020B0D" />
    </linearGradient>
    <linearGradient id="seo-glow" x1="0%" y1="0%" x2="100%" y2="0%">
      <stop offset="0%" stop-color="#00C6FF" />
      <stop offset="100%" stop-color="#10B981" />
    </linearGradient>
  </defs>

  <rect width="700" height="450" rx="12" fill="url(#mktg-bg)" stroke="#16383C" stroke-width="1.5" />

  <!-- Window Header -->
  <rect x="0" y="0" width="700" height="42" fill="#07191C" />
  <line x1="0" y1="42" x2="700" y2="42" stroke="#16383C" stroke-width="1" />
  <circle cx="20" cy="21" r="4.5" fill="#EF4444" opacity="0.8" />
  <circle cx="36" cy="21" r="4.5" fill="#F59E0B" opacity="0.8" />
  <circle cx="52" cy="21" r="4.5" fill="#10B981" opacity="0.8" />
  <text x="80" y="26" fill="#A7F3D0" font-family="system-ui, sans-serif" font-size="11" font-weight="600">Nexovio Digital Marketing • Organic Growth &amp; Technical SEO Console</text>
  <rect x="570" y="11" width="110" height="20" rx="10" fill="#10B981" fill-opacity="0.15" stroke="#10B981" stroke-opacity="0.3" />
  <text x="586" y="25" fill="#34D399" font-family="system-ui, sans-serif" font-size="10" font-weight="700">ORGANIC SEO</text>

  <!-- Left: SERP Rank Growth Trajectory Chart -->
  <rect x="24" y="58" width="410" height="270" rx="10" fill="#061416" stroke="#13383D" stroke-width="1" />
  <text x="44" y="86" fill="#FFFFFF" font-family="system-ui, sans-serif" font-size="12" font-weight="700">Commercial Intent Keyword Visibility (Rank 1-3)</text>
  
  <line x1="44" y1="130" x2="410" y2="130" stroke="#0D2529" stroke-dasharray="3 3" />
  <line x1="44" y1="180" x2="410" y2="180" stroke="#0D2529" stroke-dasharray="3 3" />
  <line x1="44" y1="230" x2="410" y2="230" stroke="#0D2529" stroke-dasharray="3 3" />

  <path d="M 44 260 Q 120 250 180 210 T 290 150 T 400 100" stroke="#10B981" stroke-width="3.5" fill="none" />
  <path d="M 44 260 L 44 260 Q 120 250 180 210 T 290 150 T 400 100 L 400 280 L 44 280 Z" fill="url(#seo-glow)" fill-opacity="0.12" />
  <circle cx="400" cy="100" r="5" fill="#00C6FF" stroke="#FFFFFF" stroke-width="2" />

  <!-- Metric Badges inside chart -->
  <rect x="50" y="280" width="110" height="36" rx="6" fill="#0A2226" />
  <text x="60" y="295" fill="#6EE7B7" font-family="system-ui, sans-serif" font-size="9">IMPRESSIONS</text>
  <text x="60" y="310" fill="#FFFFFF" font-family="system-ui, sans-serif" font-size="12" font-weight="700">1.84M (+312%)</text>

  <rect x="175" y="280" width="110" height="36" rx="6" fill="#0A2226" />
  <text x="185" y="295" fill="#6EE7B7" font-family="system-ui, sans-serif" font-size="9">ORGANIC CLICKS</text>
  <text x="185" y="310" fill="#00C6FF" font-family="system-ui, sans-serif" font-size="12" font-weight="700">248,500 /mo</text>

  <rect x="300" y="280" width="120" height="36" rx="6" fill="#0A2226" />
  <text x="310" y="295" fill="#6EE7B7" font-family="system-ui, sans-serif" font-size="9">CTR OPTIMIZATION</text>
  <text x="310" y="310" fill="#10B981" font-family="system-ui, sans-serif" font-size="12" font-weight="700">6.8% Average</text>

  <!-- Right: Search Intent & Technical Auditing -->
  <rect x="450" y="58" width="226" height="270" rx="10" fill="#061416" stroke="#13383D" stroke-width="1" />
  <text x="468" y="86" fill="#FFFFFF" font-family="system-ui, sans-serif" font-size="12" font-weight="700">Technical SEO Pillars</text>

  <rect x="468" y="104" width="190" height="42" rx="6" fill="#0A2226" stroke="#10B981" stroke-opacity="0.3" stroke-width="1" />
  <text x="480" y="122" fill="#34D399" font-family="system-ui, sans-serif" font-size="11" font-weight="600">Schema &amp; JSON-LD</text>
  <text x="480" y="138" fill="#8E9BB0" font-family="system-ui, sans-serif" font-size="9">100% Rich Snippet Eligibility</text>

  <rect x="468" y="156" width="190" height="42" rx="6" fill="#0A2226" stroke="#00C6FF" stroke-opacity="0.3" stroke-width="1" />
  <text x="480" y="174" fill="#00C6FF" font-family="system-ui, sans-serif" font-size="11" font-weight="600">SILO Architecture</text>
  <text x="480" y="190" fill="#8E9BB0" font-family="system-ui, sans-serif" font-size="9">Topical Authority Entity Graph</text>

  <rect x="468" y="208" width="190" height="42" rx="6" fill="#0A2226" stroke="#60A5FA" stroke-opacity="0.3" stroke-width="1" />
  <text x="480" y="226" fill="#60A5FA" font-family="system-ui, sans-serif" font-size="11" font-weight="600">Speed Optimization</text>
  <text x="480" y="242" fill="#8E9BB0" font-family="system-ui, sans-serif" font-size="9">0.2s Time to First Byte (TTFB)</text>

  <rect x="468" y="260" width="190" height="56" rx="6" fill="#041012" />
  <text x="480" y="280" fill="#CBD3E1" font-family="system-ui, sans-serif" font-size="10" font-weight="700">Conversion Focus</text>
  <text x="480" y="298" fill="#10B981" font-family="monospace" font-size="10">Zero Vanity Traffic Metrics</text>

  <!-- Bottom Details Bar -->
  <rect x="24" y="348" width="652" height="82" rx="8" fill="#051214" stroke="#12353A" stroke-width="1" />
  <text x="44" y="374" fill="#CBD3E1" font-family="system-ui, sans-serif" font-size="11" font-weight="700">SUSTAINABLE ORGANIC REVENUE PIPELINES</text>
  <text x="44" y="394" fill="#00C6FF" font-family="system-ui, sans-serif" font-size="10">Commercial Search Intent • High-Converting Landing Pages • Technical Audits • Zero Ads Waste</text>
  <text x="44" y="412" fill="#A7F3D0" font-family="monospace" font-size="9">Compounding organic visibility that outlasts temporary pay-per-click budgets</text>
</svg>
